<?xml version="1.0" encoding="utf-8"?><!--
  -  Copyright (C) 2023 sberg it-systeme GmbH
  -
  -  Licensed under the EUPL, Version 1.2 or – as soon they will be approved by the
  -  European Commission - subsequent versions of the EUPL (the "Licence");
  -
  - You may not use this work except in compliance with the Licence.
  - You may obtain a copy of the Licence at:
  -
  - https://joinup.ec.europa.eu/software/page/eupl
  -
  - Unless required by applicable law or agreed to in writing, software distributed under the Licence is distributed on an "AS IS" basis,
  - WITHOUT WARRANTIES OR CONDITIONS OF ANY KIND, either express or implied.
  - See the Licence for the specific language governing permissions and limitations under the Licence.
  -->

<svg version="1.1" id="Layer_1" xmlns="http://www.w3.org/2000/svg" xmlns:xlink="http://www.w3.org/1999/xlink" x="0px" y="0px" viewBox="0 0 122.88 119.96" style="enable-background:new 0 0 122.88 119.96" xml:space="preserve"><style type="text/css">.st0{fill-rule:evenodd;clip-rule:evenodd;}</style><g><path class="st0" d="M16.76,0h80.76c1.77,0,3.22,1.45,3.22,3.23V6.6c4.56,1.92,8.55,4.74,11.95,8.46 c3.48,3.81,6.08,8.22,7.76,13.18c1.62,4.76,2.44,9.99,2.44,15.68v9.68c0,4.1-2.33,7.66-5.74,9.43l3.34,7.62 c1.96,4.48,0.54,9.6-3.11,12.51c-1.83,1.46-3.98,2.83-6.42,4.08c-2.13,1.11-4.59,2.14-7.33,3.06c-0.95,0.33-1.92,0.63-2.89,0.9 v2.16c-0.14,2.52-3.39,2.57-6.91,2.43H15.56c-4.85,0-8.83,3.98-8.83,8.83c0,4.86,3.98,8.83,8.83,8.83h78.26v-9.4h6.91V116 c0,2.18-1.78,3.96-3.95,3.96H15.9c-8.75,0-15.9-7.16-15.9-15.9v-87.3C0,7.54,7.54,0,16.76,0L16.76,0z M85.78,82.49 c-9.49-0.02-17.07-3.05-22.76-9.14c-5.67-6.09-8.52-13.81-8.52-23.18v-2.43c0-9.78,2.7-17.84,8.06-24.15 c5.38-6.34,12.58-9.49,21.64-9.45c8.88,0,15.78,2.68,20.68,8.04c4.9,5.36,7.37,12.6,7.37,21.72v9.68H72.95l-0.12,0.35 c0.33,4.34,1.79,7.91,4.36,10.72c2.57,2.8,6.06,4.2,10.49,4.2c3.92,0,7.2-0.4,9.8-1.19c2.6-0.79,5.42-2.04,8.52-3.73l4.8,10.94 c-2.72,2.16-6.23,3.96-10.55,5.41C95.91,81.75,91.1,82.47,85.78,82.49L85.78,82.49z M84.21,27.85c-3.29,0-5.88,1.25-7.79,3.76 c-1.91,2.52-3.07,5.84-3.53,9.93l0.19,0.29h21.79v-1.58c0-3.76-0.89-6.77-2.66-9.04C90.43,28.97,87.78,27.85,84.21,27.85 L84.21,27.85z M19.86,13.08h2.79c1.43,0,2.6,0.94,2.6,2.1v65.86c0,1.16-1.17,2.1-2.6,2.1h-2.79c-1.42,0-2.59-0.94-2.59-2.1V15.18 C17.27,14.02,18.44,13.08,19.86,13.08L19.86,13.08L19.86,13.08z"/></g></svg>